<mxfile host="app.diagrams.net" modified="2021-06-01T15:37:56.796Z" agent="5.0 (Windows NT 10.0; Win64; x64) AppleWebKit/537.36 (KHTML, like Gecko) Chrome/83.0.4103.116 Safari/537.36" etag="llpZ-YTg6NNswcr0LVNb" version="14.6.10" type="github">
  <diagram id="4QRazGgu9WMaKBfKX1o5" name="Page-1">
    <mxGraphModel dx="1422" dy="745" grid="1" gridSize="10" guides="1" tooltips="1" connect="1" arrows="1" fold="1" page="1" pageScale="1" pageWidth="827" pageHeight="1169" math="0" shadow="0">
      <root>
        <mxCell id="0" />
        <mxCell id="1" parent="0" />
        <mxCell id="902bRbRnA_5l2vHcmtZ7-46" value="host_bal" style="rounded=0;whiteSpace=wrap;html=1;align=center;labelPosition=center;verticalLabelPosition=bottom;verticalAlign=top;" parent="1" vertex="1">
          <mxGeometry x="290" y="50" width="170" height="100" as="geometry" />
        </mxCell>
        <mxCell id="902bRbRnA_5l2vHcmtZ7-38" value="host_1" style="rounded=0;whiteSpace=wrap;html=1;align=center;labelPosition=center;verticalLabelPosition=bottom;verticalAlign=top;" parent="1" vertex="1">
          <mxGeometry x="30" y="10" width="230" height="80" as="geometry" />
        </mxCell>
        <mxCell id="902bRbRnA_5l2vHcmtZ7-1" value="host_mon" style="rounded=0;whiteSpace=wrap;html=1;align=center;labelPosition=center;verticalLabelPosition=bottom;verticalAlign=top;" parent="1" vertex="1">
          <mxGeometry x="480" y="190" width="210" height="80" as="geometry" />
        </mxCell>
        <mxCell id="902bRbRnA_5l2vHcmtZ7-2" value="pg_db" style="shape=cylinder3;whiteSpace=wrap;html=1;boundedLbl=1;backgroundOutline=1;size=15;" parent="1" vertex="1">
          <mxGeometry x="40" y="20" width="40" height="60" as="geometry" />
        </mxCell>
        <mxCell id="902bRbRnA_5l2vHcmtZ7-17" style="edgeStyle=orthogonalEdgeStyle;rounded=0;orthogonalLoop=1;jettySize=auto;html=1;exitX=0.25;exitY=1;exitDx=0;exitDy=0;entryX=1;entryY=0;entryDx=0;entryDy=37.5;entryPerimeter=0;" parent="1" source="902bRbRnA_5l2vHcmtZ7-3" target="902bRbRnA_5l2vHcmtZ7-2" edge="1">
          <mxGeometry relative="1" as="geometry" />
        </mxCell>
        <mxCell id="902bRbRnA_5l2vHcmtZ7-3" value="postgres_exporter&lt;br&gt;:9187" style="rounded=1;whiteSpace=wrap;html=1;arcSize=27;" parent="1" vertex="1">
          <mxGeometry x="110" y="20" width="120" height="30" as="geometry" />
        </mxCell>
        <mxCell id="902bRbRnA_5l2vHcmtZ7-26" value="host_2" style="rounded=0;whiteSpace=wrap;html=1;align=center;labelPosition=center;verticalLabelPosition=bottom;verticalAlign=top;" parent="1" vertex="1">
          <mxGeometry x="30" y="140" width="230" height="80" as="geometry" />
        </mxCell>
        <mxCell id="902bRbRnA_5l2vHcmtZ7-27" value="pg_db" style="shape=cylinder3;whiteSpace=wrap;html=1;boundedLbl=1;backgroundOutline=1;size=15;" parent="1" vertex="1">
          <mxGeometry x="40" y="150" width="40" height="60" as="geometry" />
        </mxCell>
        <mxCell id="902bRbRnA_5l2vHcmtZ7-28" style="edgeStyle=orthogonalEdgeStyle;rounded=0;orthogonalLoop=1;jettySize=auto;html=1;exitX=0.25;exitY=1;exitDx=0;exitDy=0;entryX=1;entryY=0;entryDx=0;entryDy=37.5;entryPerimeter=0;" parent="1" source="902bRbRnA_5l2vHcmtZ7-29" target="902bRbRnA_5l2vHcmtZ7-27" edge="1">
          <mxGeometry relative="1" as="geometry" />
        </mxCell>
        <mxCell id="902bRbRnA_5l2vHcmtZ7-29" value="postgres_exporter&lt;br&gt;:9187" style="rounded=1;whiteSpace=wrap;html=1;arcSize=27;" parent="1" vertex="1">
          <mxGeometry x="110" y="150" width="120" height="30" as="geometry" />
        </mxCell>
        <mxCell id="902bRbRnA_5l2vHcmtZ7-30" value="host_3" style="rounded=0;whiteSpace=wrap;html=1;align=center;labelPosition=center;verticalLabelPosition=bottom;verticalAlign=top;" parent="1" vertex="1">
          <mxGeometry x="30" y="240" width="230" height="80" as="geometry" />
        </mxCell>
        <mxCell id="902bRbRnA_5l2vHcmtZ7-31" value="pg_db" style="shape=cylinder3;whiteSpace=wrap;html=1;boundedLbl=1;backgroundOutline=1;size=15;" parent="1" vertex="1">
          <mxGeometry x="40" y="250" width="40" height="60" as="geometry" />
        </mxCell>
        <mxCell id="902bRbRnA_5l2vHcmtZ7-32" style="edgeStyle=orthogonalEdgeStyle;rounded=0;orthogonalLoop=1;jettySize=auto;html=1;exitX=0.25;exitY=1;exitDx=0;exitDy=0;entryX=1;entryY=0;entryDx=0;entryDy=37.5;entryPerimeter=0;" parent="1" source="902bRbRnA_5l2vHcmtZ7-33" target="902bRbRnA_5l2vHcmtZ7-31" edge="1">
          <mxGeometry relative="1" as="geometry" />
        </mxCell>
        <mxCell id="902bRbRnA_5l2vHcmtZ7-33" value="postgres_exporter&lt;br&gt;:9187" style="rounded=1;whiteSpace=wrap;html=1;arcSize=27;" parent="1" vertex="1">
          <mxGeometry x="110" y="250" width="120" height="30" as="geometry" />
        </mxCell>
        <mxCell id="902bRbRnA_5l2vHcmtZ7-34" value="host_n" style="rounded=0;whiteSpace=wrap;html=1;align=center;labelPosition=center;verticalLabelPosition=bottom;verticalAlign=top;" parent="1" vertex="1">
          <mxGeometry x="30" y="410" width="230" height="80" as="geometry" />
        </mxCell>
        <mxCell id="902bRbRnA_5l2vHcmtZ7-35" value="pg_db" style="shape=cylinder3;whiteSpace=wrap;html=1;boundedLbl=1;backgroundOutline=1;size=15;" parent="1" vertex="1">
          <mxGeometry x="40" y="420" width="40" height="60" as="geometry" />
        </mxCell>
        <mxCell id="902bRbRnA_5l2vHcmtZ7-36" style="edgeStyle=orthogonalEdgeStyle;rounded=0;orthogonalLoop=1;jettySize=auto;html=1;exitX=0.25;exitY=1;exitDx=0;exitDy=0;entryX=1;entryY=0;entryDx=0;entryDy=37.5;entryPerimeter=0;" parent="1" source="902bRbRnA_5l2vHcmtZ7-37" target="902bRbRnA_5l2vHcmtZ7-35" edge="1">
          <mxGeometry relative="1" as="geometry" />
        </mxCell>
        <mxCell id="902bRbRnA_5l2vHcmtZ7-37" value="postgres_exporter&lt;br&gt;:9187" style="rounded=1;whiteSpace=wrap;html=1;arcSize=27;" parent="1" vertex="1">
          <mxGeometry x="110" y="420" width="120" height="30" as="geometry" />
        </mxCell>
        <mxCell id="902bRbRnA_5l2vHcmtZ7-41" style="edgeStyle=orthogonalEdgeStyle;rounded=0;orthogonalLoop=1;jettySize=auto;html=1;exitX=0;exitY=0;exitDx=0;exitDy=0;entryX=1;entryY=0.5;entryDx=0;entryDy=0;" parent="1" source="902bRbRnA_5l2vHcmtZ7-39" target="902bRbRnA_5l2vHcmtZ7-3" edge="1">
          <mxGeometry relative="1" as="geometry" />
        </mxCell>
        <mxCell id="902bRbRnA_5l2vHcmtZ7-42" style="edgeStyle=orthogonalEdgeStyle;rounded=0;orthogonalLoop=1;jettySize=auto;html=1;exitX=0;exitY=0.25;exitDx=0;exitDy=0;entryX=1;entryY=0.5;entryDx=0;entryDy=0;" parent="1" source="902bRbRnA_5l2vHcmtZ7-39" target="902bRbRnA_5l2vHcmtZ7-29" edge="1">
          <mxGeometry relative="1" as="geometry">
            <mxPoint x="330" y="180" as="targetPoint" />
          </mxGeometry>
        </mxCell>
        <mxCell id="902bRbRnA_5l2vHcmtZ7-43" style="edgeStyle=orthogonalEdgeStyle;rounded=0;orthogonalLoop=1;jettySize=auto;html=1;exitX=0;exitY=0.5;exitDx=0;exitDy=0;entryX=1;entryY=0.5;entryDx=0;entryDy=0;" parent="1" source="902bRbRnA_5l2vHcmtZ7-39" target="902bRbRnA_5l2vHcmtZ7-33" edge="1">
          <mxGeometry relative="1" as="geometry" />
        </mxCell>
        <mxCell id="902bRbRnA_5l2vHcmtZ7-44" style="edgeStyle=orthogonalEdgeStyle;rounded=0;orthogonalLoop=1;jettySize=auto;html=1;exitX=0;exitY=1;exitDx=0;exitDy=0;entryX=1;entryY=0.5;entryDx=0;entryDy=0;" parent="1" source="902bRbRnA_5l2vHcmtZ7-39" target="902bRbRnA_5l2vHcmtZ7-37" edge="1">
          <mxGeometry relative="1" as="geometry" />
        </mxCell>
        <mxCell id="902bRbRnA_5l2vHcmtZ7-45" style="edgeStyle=orthogonalEdgeStyle;rounded=0;orthogonalLoop=1;jettySize=auto;html=1;exitX=0.5;exitY=1;exitDx=0;exitDy=0;entryX=0.492;entryY=0.1;entryDx=0;entryDy=0;entryPerimeter=0;" parent="1" source="902bRbRnA_5l2vHcmtZ7-39" target="902bRbRnA_5l2vHcmtZ7-40" edge="1">
          <mxGeometry relative="1" as="geometry" />
        </mxCell>
        <mxCell id="902bRbRnA_5l2vHcmtZ7-54" style="edgeStyle=orthogonalEdgeStyle;rounded=0;orthogonalLoop=1;jettySize=auto;html=1;exitX=0.25;exitY=0;exitDx=0;exitDy=0;entryX=1;entryY=0.5;entryDx=0;entryDy=0;" parent="1" source="902bRbRnA_5l2vHcmtZ7-39" target="902bRbRnA_5l2vHcmtZ7-51" edge="1">
          <mxGeometry relative="1" as="geometry" />
        </mxCell>
        <mxCell id="902bRbRnA_5l2vHcmtZ7-39" value="vmagent" style="rounded=1;whiteSpace=wrap;html=1;" parent="1" vertex="1">
          <mxGeometry x="530" y="210" width="110" height="40" as="geometry" />
        </mxCell>
        <mxCell id="902bRbRnA_5l2vHcmtZ7-40" value="VictoriaMetrics" style="ellipse;shape=cloud;whiteSpace=wrap;html=1;" parent="1" vertex="1">
          <mxGeometry x="580" y="545" width="120" height="80" as="geometry" />
        </mxCell>
        <mxCell id="902bRbRnA_5l2vHcmtZ7-50" style="edgeStyle=orthogonalEdgeStyle;rounded=0;orthogonalLoop=1;jettySize=auto;html=1;exitX=0;exitY=1;exitDx=0;exitDy=0;" parent="1" source="902bRbRnA_5l2vHcmtZ7-48" target="902bRbRnA_5l2vHcmtZ7-27" edge="1">
          <mxGeometry relative="1" as="geometry">
            <Array as="points">
              <mxPoint x="300" y="130" />
              <mxPoint x="60" y="130" />
            </Array>
          </mxGeometry>
        </mxCell>
        <mxCell id="902bRbRnA_5l2vHcmtZ7-52" style="edgeStyle=orthogonalEdgeStyle;rounded=0;orthogonalLoop=1;jettySize=auto;html=1;exitX=0;exitY=0.5;exitDx=0;exitDy=0;entryX=0.855;entryY=1;entryDx=0;entryDy=-4.35;entryPerimeter=0;" parent="1" source="902bRbRnA_5l2vHcmtZ7-48" target="902bRbRnA_5l2vHcmtZ7-2" edge="1">
          <mxGeometry relative="1" as="geometry" />
        </mxCell>
        <mxCell id="902bRbRnA_5l2vHcmtZ7-48" value="pg_bouncer" style="shape=process;whiteSpace=wrap;html=1;backgroundOutline=1;" parent="1" vertex="1">
          <mxGeometry x="300" y="60" width="150" height="30" as="geometry" />
        </mxCell>
        <mxCell id="902bRbRnA_5l2vHcmtZ7-53" style="edgeStyle=orthogonalEdgeStyle;rounded=0;orthogonalLoop=1;jettySize=auto;html=1;exitX=0.5;exitY=0;exitDx=0;exitDy=0;entryX=0.5;entryY=1;entryDx=0;entryDy=0;" parent="1" source="902bRbRnA_5l2vHcmtZ7-51" target="902bRbRnA_5l2vHcmtZ7-48" edge="1">
          <mxGeometry relative="1" as="geometry" />
        </mxCell>
        <mxCell id="902bRbRnA_5l2vHcmtZ7-51" value="pg_bouncer_exporter&lt;br&gt;:9127" style="rounded=1;whiteSpace=wrap;html=1;arcSize=27;" parent="1" vertex="1">
          <mxGeometry x="315" y="110" width="120" height="30" as="geometry" />
        </mxCell>
        <mxCell id="902bRbRnA_5l2vHcmtZ7-55" value="host_1" style="rounded=0;whiteSpace=wrap;html=1;align=center;labelPosition=center;verticalLabelPosition=bottom;verticalAlign=top;" parent="1" vertex="1">
          <mxGeometry x="30" y="730" width="230" height="80" as="geometry" />
        </mxCell>
        <mxCell id="902bRbRnA_5l2vHcmtZ7-56" value="pg_db" style="shape=cylinder3;whiteSpace=wrap;html=1;boundedLbl=1;backgroundOutline=1;size=15;" parent="1" vertex="1">
          <mxGeometry x="40" y="740" width="40" height="60" as="geometry" />
        </mxCell>
        <mxCell id="eqPKZl8lgO3WAEdbTDNA-1" style="edgeStyle=orthogonalEdgeStyle;rounded=0;orthogonalLoop=1;jettySize=auto;html=1;exitX=0.25;exitY=1;exitDx=0;exitDy=0;entryX=0.85;entryY=0.533;entryDx=0;entryDy=0;entryPerimeter=0;" edge="1" parent="1" source="902bRbRnA_5l2vHcmtZ7-57" target="902bRbRnA_5l2vHcmtZ7-56">
          <mxGeometry relative="1" as="geometry" />
        </mxCell>
        <mxCell id="eqPKZl8lgO3WAEdbTDNA-14" style="edgeStyle=orthogonalEdgeStyle;rounded=0;orthogonalLoop=1;jettySize=auto;html=1;exitX=1;exitY=0.5;exitDx=0;exitDy=0;" edge="1" parent="1" source="902bRbRnA_5l2vHcmtZ7-57" target="902bRbRnA_5l2vHcmtZ7-40">
          <mxGeometry relative="1" as="geometry">
            <Array as="points">
              <mxPoint x="600" y="755" />
            </Array>
          </mxGeometry>
        </mxCell>
        <mxCell id="eqPKZl8lgO3WAEdbTDNA-21" style="edgeStyle=orthogonalEdgeStyle;rounded=0;orthogonalLoop=1;jettySize=auto;html=1;exitX=0.75;exitY=1;exitDx=0;exitDy=0;entryX=0.75;entryY=1;entryDx=0;entryDy=0;" edge="1" parent="1" source="902bRbRnA_5l2vHcmtZ7-57" target="902bRbRnA_5l2vHcmtZ7-55">
          <mxGeometry relative="1" as="geometry" />
        </mxCell>
        <mxCell id="902bRbRnA_5l2vHcmtZ7-57" value="telegraf" style="rounded=1;whiteSpace=wrap;html=1;arcSize=27;" parent="1" vertex="1">
          <mxGeometry x="110" y="740" width="120" height="30" as="geometry" />
        </mxCell>
        <mxCell id="eqPKZl8lgO3WAEdbTDNA-2" value="host_2" style="rounded=0;whiteSpace=wrap;html=1;align=center;labelPosition=center;verticalLabelPosition=bottom;verticalAlign=top;" vertex="1" parent="1">
          <mxGeometry x="30" y="850" width="230" height="80" as="geometry" />
        </mxCell>
        <mxCell id="eqPKZl8lgO3WAEdbTDNA-3" value="pg_db" style="shape=cylinder3;whiteSpace=wrap;html=1;boundedLbl=1;backgroundOutline=1;size=15;" vertex="1" parent="1">
          <mxGeometry x="40" y="860" width="40" height="60" as="geometry" />
        </mxCell>
        <mxCell id="eqPKZl8lgO3WAEdbTDNA-4" style="edgeStyle=orthogonalEdgeStyle;rounded=0;orthogonalLoop=1;jettySize=auto;html=1;exitX=0.25;exitY=1;exitDx=0;exitDy=0;entryX=0.85;entryY=0.533;entryDx=0;entryDy=0;entryPerimeter=0;" edge="1" parent="1" source="eqPKZl8lgO3WAEdbTDNA-5" target="eqPKZl8lgO3WAEdbTDNA-3">
          <mxGeometry relative="1" as="geometry" />
        </mxCell>
        <mxCell id="eqPKZl8lgO3WAEdbTDNA-20" style="edgeStyle=orthogonalEdgeStyle;rounded=0;orthogonalLoop=1;jettySize=auto;html=1;exitX=0.5;exitY=1;exitDx=0;exitDy=0;entryX=0.691;entryY=1.013;entryDx=0;entryDy=0;entryPerimeter=0;" edge="1" parent="1" source="eqPKZl8lgO3WAEdbTDNA-5" target="eqPKZl8lgO3WAEdbTDNA-2">
          <mxGeometry relative="1" as="geometry" />
        </mxCell>
        <mxCell id="eqPKZl8lgO3WAEdbTDNA-22" style="edgeStyle=orthogonalEdgeStyle;rounded=0;orthogonalLoop=1;jettySize=auto;html=1;exitX=1;exitY=0.5;exitDx=0;exitDy=0;entryX=0.475;entryY=0.925;entryDx=0;entryDy=0;entryPerimeter=0;" edge="1" parent="1" source="eqPKZl8lgO3WAEdbTDNA-5" target="902bRbRnA_5l2vHcmtZ7-40">
          <mxGeometry relative="1" as="geometry" />
        </mxCell>
        <mxCell id="eqPKZl8lgO3WAEdbTDNA-5" value="telegraf" style="rounded=1;whiteSpace=wrap;html=1;arcSize=27;" vertex="1" parent="1">
          <mxGeometry x="110" y="860" width="120" height="30" as="geometry" />
        </mxCell>
        <mxCell id="eqPKZl8lgO3WAEdbTDNA-16" style="edgeStyle=orthogonalEdgeStyle;rounded=0;orthogonalLoop=1;jettySize=auto;html=1;exitX=1;exitY=0.5;exitDx=0;exitDy=0;entryX=0.7;entryY=0.85;entryDx=0;entryDy=0;entryPerimeter=0;" edge="1" parent="1" source="eqPKZl8lgO3WAEdbTDNA-9" target="902bRbRnA_5l2vHcmtZ7-40">
          <mxGeometry relative="1" as="geometry" />
        </mxCell>
        <mxCell id="eqPKZl8lgO3WAEdbTDNA-6" value="host_3" style="rounded=0;whiteSpace=wrap;html=1;align=center;labelPosition=center;verticalLabelPosition=bottom;verticalAlign=top;" vertex="1" parent="1">
          <mxGeometry x="30" y="970" width="230" height="80" as="geometry" />
        </mxCell>
        <mxCell id="eqPKZl8lgO3WAEdbTDNA-7" value="pg_db" style="shape=cylinder3;whiteSpace=wrap;html=1;boundedLbl=1;backgroundOutline=1;size=15;" vertex="1" parent="1">
          <mxGeometry x="40" y="980" width="40" height="60" as="geometry" />
        </mxCell>
        <mxCell id="eqPKZl8lgO3WAEdbTDNA-8" style="edgeStyle=orthogonalEdgeStyle;rounded=0;orthogonalLoop=1;jettySize=auto;html=1;exitX=0.25;exitY=1;exitDx=0;exitDy=0;entryX=0.85;entryY=0.533;entryDx=0;entryDy=0;entryPerimeter=0;" edge="1" parent="1" source="eqPKZl8lgO3WAEdbTDNA-9" target="eqPKZl8lgO3WAEdbTDNA-7">
          <mxGeometry relative="1" as="geometry" />
        </mxCell>
        <mxCell id="eqPKZl8lgO3WAEdbTDNA-19" style="edgeStyle=orthogonalEdgeStyle;rounded=0;orthogonalLoop=1;jettySize=auto;html=1;exitX=0.5;exitY=1;exitDx=0;exitDy=0;entryX=0.67;entryY=1.013;entryDx=0;entryDy=0;entryPerimeter=0;" edge="1" parent="1" source="eqPKZl8lgO3WAEdbTDNA-9" target="eqPKZl8lgO3WAEdbTDNA-6">
          <mxGeometry relative="1" as="geometry" />
        </mxCell>
        <mxCell id="eqPKZl8lgO3WAEdbTDNA-9" value="telegraf" style="rounded=1;whiteSpace=wrap;html=1;arcSize=27;" vertex="1" parent="1">
          <mxGeometry x="110" y="980" width="120" height="30" as="geometry" />
        </mxCell>
        <mxCell id="eqPKZl8lgO3WAEdbTDNA-10" value="host_n" style="rounded=0;whiteSpace=wrap;html=1;align=center;labelPosition=center;verticalLabelPosition=bottom;verticalAlign=top;" vertex="1" parent="1">
          <mxGeometry x="30" y="1110" width="230" height="80" as="geometry" />
        </mxCell>
        <mxCell id="eqPKZl8lgO3WAEdbTDNA-11" value="pg_db" style="shape=cylinder3;whiteSpace=wrap;html=1;boundedLbl=1;backgroundOutline=1;size=15;" vertex="1" parent="1">
          <mxGeometry x="40" y="1120" width="40" height="60" as="geometry" />
        </mxCell>
        <mxCell id="eqPKZl8lgO3WAEdbTDNA-12" style="edgeStyle=orthogonalEdgeStyle;rounded=0;orthogonalLoop=1;jettySize=auto;html=1;exitX=0.25;exitY=1;exitDx=0;exitDy=0;entryX=0.85;entryY=0.533;entryDx=0;entryDy=0;entryPerimeter=0;" edge="1" parent="1" source="eqPKZl8lgO3WAEdbTDNA-13" target="eqPKZl8lgO3WAEdbTDNA-11">
          <mxGeometry relative="1" as="geometry" />
        </mxCell>
        <mxCell id="eqPKZl8lgO3WAEdbTDNA-17" style="edgeStyle=orthogonalEdgeStyle;rounded=0;orthogonalLoop=1;jettySize=auto;html=1;exitX=1;exitY=0.5;exitDx=0;exitDy=0;entryX=0.95;entryY=0.588;entryDx=0;entryDy=0;entryPerimeter=0;" edge="1" parent="1" source="eqPKZl8lgO3WAEdbTDNA-13" target="902bRbRnA_5l2vHcmtZ7-40">
          <mxGeometry relative="1" as="geometry" />
        </mxCell>
        <mxCell id="eqPKZl8lgO3WAEdbTDNA-13" value="telegraf" style="rounded=1;whiteSpace=wrap;html=1;arcSize=27;" vertex="1" parent="1">
          <mxGeometry x="110" y="1120" width="120" height="30" as="geometry" />
        </mxCell>
      </root>
    </mxGraphModel>
  </diagram>
</mxfile>
